<?xml version="1.0" standalone="no"?>
<!DOCTYPE svg PUBLIC "-//W3C//DTD SVG 20010904//EN"
 "http://www.w3.org/TR/2001/REC-SVG-20010904/DTD/svg10.dtd">
<svg version="1.0" xmlns="http://www.w3.org/2000/svg"
 width="300.000000pt" height="300.000000pt" viewBox="0 0 300.000000 300.000000"
 preserveAspectRatio="xMidYMid meet">
<metadata>
Created by potrace 1.10, written by Peter Selinger 2001-2011
</metadata>
<g transform="translate(0.000000,300.000000) scale(0.100000,-0.100000)"
fill="#000000" stroke="none">
<path d="M760 2685 l0 -176 53 3 52 3 0 170 0 170 -52 3 -53 3 0 -176z"/>
<path d="M1970 2685 l0 -175 50 0 50 0 0 175 0 175 -50 0 -50 0 0 -175z"/>
<path d="M430 2725 c-62 -20 -113 -65 -144 -127 l-26 -52 0 -917 c0 -1008 -3
-950 62 -1024 17 -20 50 -46 72 -58 l41 -22 985 0 985 0 48 28 c60 36 103 94
117 160 8 37 10 315 8 947 -3 862 -4 896 -22 934 -25 50 -72 97 -122 121 -30
15 -67 20 -156 23 -116 4 -117 4 -123 -19 -3 -13 -4 -35 -1 -49 2 -14 5 -28 5
-32 1 -5 48 -8 106 -8 120 0 154 -12 185 -63 18 -28 20 -51 20 -189 l0 -158
-1055 0 -1055 0 0 145 c0 159 8 192 54 235 26 23 36 25 147 28 l120 4 -3 51
-3 52 -100 2 c-64 1 -116 -3 -145 -12z m2040 -1310 l0 -704 -37 -40 c-36 -37
-42 -39 -113 -46 -41 -3 -475 -5 -965 -3 -866 3 -891 4 -923 23 -18 11 -41 38
-52 60 -19 40 -20 64 -20 728 l0 687 1055 0 1055 0 0 -705z"/>
<path d="M900 1860 l0 -160 -165 0 -165 0 0 -50 0 -50 165 0 165 0 0 -210 0
-210 -165 0 -165 0 0 -50 0 -50 165 0 165 0 0 -160 0 -160 50 0 49 0 3 158 3
157 180 0 180 0 3 -157 3 -158 49 0 50 0 0 160 0 160 180 0 179 0 3 -157 3
-158 53 -3 52 -3 0 160 0 161 163 2 162 3 0 45 0 45 -162 3 -163 2 0 210 0
210 163 2 162 3 3 48 3 47 -165 0 -166 0 0 161 0 160 -52 -3 -53 -3 -3 -157
-3 -158 -179 0 -180 0 0 160 0 160 -50 0 -49 0 -3 -157 -3 -158 -180 0 -180 0
-3 158 -3 157 -49 0 -50 0 0 -160z m465 -470 l0 -205 -182 -3 -183 -2 0 210 0
210 183 -2 182 -3 0 -205z m467 40 c2 -94 2 -188 0 -210 l-4 -40 -179 0 -179
0 0 210 0 210 179 0 179 0 4 -170z"/>
<path d="M950 2685 l0 -55 468 2 467 3 0 50 0 50 -467 3 -468 2 0 -55z"/>
<path d="M2691 2425 l-31 -36 22 -30 23 -31 3 -906 c2 -891 2 -908 -18 -940
-11 -18 -34 -41 -52 -52 -32 -20 -53 -20 -983 -20 -944 0 -950 0 -984 21 l-34
21 -35 -36 c-42 -41 -37 -53 38 -85 49 -21 52 -21 1020 -21 l971 0 48 25 c57
28 93 68 115 127 15 39 16 134 14 969 l-3 926 -30 48 c-16 27 -35 50 -41 52
-6 2 -25 -12 -43 -32z"/>
</g>
</svg>
