 <svg  version="1.0" xmlns="http://www.w3.org/2000/svg"  width="300.000000pt" height="300.000000pt" viewBox="0 0 300.000000 300.000000"  preserveAspectRatio="xMidYMid meet">  <g transform="translate(0.000000,300.000000) scale(0.100000,-0.100000)" fill="#6d60b2" stroke="none"> <path d="M2143 2926 c-17 -8 -47 -31 -67 -52 -70 -74 -66 -9 -66 -1213 l0 -1086 24 -51 c13 -28 37 -63 52 -79 55 -51 75 -55 319 -55 203 0 230 2 263 19 44 23 82 62 108 111 18 33 19 83 22 1123 1 697 -1 1102 -8 1125 -14 53 -56 114 -98 142 -35 25 -39 25 -276 27 -190 2 -248 0 -273 -11z m488 -102 c18 -9 38 -32 50 -57 18 -40 19 -82 19 -1102 0 -1019 -1 -1062 -19 -1102 -11 -23 -28 -46 -39 -52 -28 -15 -446 -15 -474 0 -11 6 -28 29 -39 52 -18 40 -19 84 -19 1099 0 1172 -3 1118 64 1159 28 17 52 19 229 19 160 0 204 -3 228 -16z"/> <path d="M395 2209 c-48 -11 -108 -58 -133 -102 -16 -29 -17 -93 -20 -780 -2 -509 1 -760 8 -787 14 -51 64 -108 115 -131 35 -16 69 -19 275 -19 228 0 237 1 287 24 36 17 60 38 80 67 l28 43 3 755 c2 559 0 767 -9 799 -15 55 -82 115 -144 131 -52 13 -431 13 -490 0z m494 -113 c15 -8 32 -26 39 -41 9 -19 12 -210 12 -751 0 -777 1 -767 -49 -794 -12 -6 -112 -10 -254 -10 l-234 0 -27 25 -26 24 0 754 0 754 23 20 c12 11 29 23 37 26 8 3 113 6 233 6 170 1 224 -2 246 -13z"/> <path d="M1238 1620 c-50 -15 -96 -50 -112 -85 -15 -30 -16 -89 -14 -539 l3 -505 34 -35 c58 -59 94 -66 361 -66 267 0 303 7 361 66 l34 35 3 507 c3 577 5 556 -78 602 -45 25 -48 25 -305 27 -143 1 -272 -2 -287 -7z m545 -113 l27 -17 0 -473 c0 -259 -4 -477 -8 -483 -20 -30 -55 -34 -291 -34 -161 0 -248 4 -266 12 l-25 11 0 489 0 489 33 14 c25 12 80 14 267 12 207 -2 239 -4 263 -20z"/> <path d="M393 285 c-38 -16 -67 -67 -58 -102 3 -14 18 -36 32 -49 l26 -24 1149 0 1150 0 29 29 c47 47 34 117 -26 146 -29 13 -162 15 -1152 15 -930 -1 -1123 -3 -1150 -15z"/> </g> </svg> 