 <svg  version="1.0" xmlns="http://www.w3.org/2000/svg"  width="300.000000pt" height="300.000000pt" viewBox="0 0 300.000000 300.000000"  preserveAspectRatio="xMidYMid meet">  <g transform="translate(0.000000,300.000000) scale(0.100000,-0.100000)" fill="#000000" stroke="none"> <path d="M2416 2330 c-262 -198 -480 -360 -485 -360 -5 0 -139 133 -299 295 -227 231 -295 295 -315 295 -15 0 -62 -27 -119 -68 -51 -37 -332 -238 -623 -446 -292 -208 -536 -385 -542 -394 -7 -9 -13 -26 -13 -38 0 -30 37 -74 62 -74 18 0 384 257 1068 750 l155 112 292 -297 c251 -256 295 -296 322 -297 24 -1 59 21 163 99 704 530 856 647 876 670 25 27 25 70 1 100 -31 37 -58 20 -543 -347z"/> <path d="M1169 2086 c-53 -35 -98 -72 -101 -82 -2 -11 -1 -246 3 -524 4 -278 8 -601 8 -717 1 -199 2 -214 21 -233 19 -19 33 -20 303 -19 305 1 440 8 457 25 12 12 13 616 1 911 l-6 162 -263 270 c-237 243 -267 271 -295 271 -22 -1 -62 -20 -128 -64z m352 -301 l226 -230 7 -457 c4 -251 3 -459 -2 -462 -4 -2 -129 -6 -278 -7 l-269 -2 -6 174 c-4 96 -9 395 -12 664 l-6 490 47 32 c26 18 52 31 57 30 6 -1 112 -105 236 -232z"/> <path d="M2290 1813 l-232 -238 7 -515 c6 -462 9 -516 23 -529 14 -11 62 -12 250 -7 128 3 238 8 243 11 10 7 10 406 0 1073 -6 441 -6 441 -48 442 -6 0 -116 -107 -243 -237z m214 -305 c3 -216 7 -505 7 -643 l2 -250 -174 -7 c-96 -3 -177 -3 -181 0 -4 4 -10 216 -13 472 l-7 465 174 176 c95 97 176 177 179 178 3 0 9 -176 13 -391z"/> <path d="M748 1758 c-98 -78 -583 -481 -621 -517 l-38 -36 6 -325 c3 -179 8 -335 10 -346 3 -12 13 -25 22 -29 26 -10 700 -6 727 5 13 5 27 14 31 20 4 6 4 286 0 622 -7 577 -9 612 -26 629 -28 28 -52 23 -111 -23z m16 -210 c3 -35 7 -257 9 -494 l3 -431 -194 -6 c-108 -4 -232 -7 -277 -7 l-82 0 -7 77 c-3 42 -6 166 -5 277 l0 201 267 222 c147 122 270 222 274 222 3 1 9 -27 12 -61z"/> </g> </svg> 