<?xml version="1.0" standalone="no"?>
<!DOCTYPE svg PUBLIC "-//W3C//DTD SVG 20010904//EN"
 "http://www.w3.org/TR/2001/REC-SVG-20010904/DTD/svg10.dtd">
<svg version="1.0" xmlns="http://www.w3.org/2000/svg"
 width="300.000000pt" height="300.000000pt" viewBox="0 0 300.000000 300.000000"
 preserveAspectRatio="xMidYMid meet">
<metadata>
Created by potrace 1.10, written by Peter Selinger 2001-2011
</metadata>
<g transform="translate(0.000000,300.000000) scale(0.100000,-0.100000)"
fill="#000000" stroke="none">
<path d="M577 2603 c-12 -11 -8 -78 5 -91 18 -18 1797 -17 1822 1 13 9 17 23
14 52 l-3 40 -916 3 c-503 1 -919 -1 -922 -5z"/>
<path d="M300 2421 c-83 -26 -145 -79 -181 -156 l-29 -60 0 -617 c0 -583 1
-619 19 -661 25 -58 73 -111 130 -145 42 -24 57 -27 164 -31 l117 -3 0 -77 c0
-127 -12 -121 265 -121 199 0 236 2 249 16 12 12 16 36 16 100 l0 84 445 0
445 0 0 -84 c0 -64 4 -88 16 -100 13 -14 50 -16 245 -16 278 0 269 -4 269 119
l0 79 113 4 c131 4 166 17 238 88 82 82 80 59 77 766 -3 616 -3 619 -25 660
-34 63 -66 97 -125 129 l-53 30 -1185 2 c-652 1 -1196 -2 -1210 -6z m2410
-126 c26 -18 53 -47 65 -70 19 -38 20 -63 23 -619 2 -508 1 -585 -13 -627 -19
-57 -68 -104 -124 -119 -27 -7 -404 -9 -1189 -8 l-1150 3 -44 30 c-25 18 -52
49 -65 75 l-23 44 0 586 0 586 23 44 c12 24 34 52 48 62 66 49 28 47 1254 45
l1150 -2 45 -30z m-1760 -1590 l0 -45 -160 0 -160 0 0 45 0 45 160 0 160 0 0
-45z m1410 0 l0 -45 -160 0 -160 0 0 45 0 45 160 0 160 0 0 -45z"/>
<path d="M1118 2023 c-8 -10 -68 -97 -134 -193 -65 -96 -136 -200 -156 -230
-42 -61 -47 -89 -20 -113 15 -14 42 -17 160 -17 l142 0 0 -140 0 -140 50 0 50
0 0 139 0 140 48 3 47 3 0 50 0 50 -47 3 -48 3 0 210 c0 126 -4 218 -10 230
-13 24 -62 25 -82 2z m-12 -430 c-6 -14 -156 -19 -156 -5 0 7 20 36 125 185
l30 42 3 -104 c1 -58 0 -111 -2 -118z"/>
<path d="M460 2005 c-60 -19 -110 -62 -138 -119 -30 -60 -27 -108 8 -113 37
-6 70 5 70 23 0 28 31 75 63 94 66 41 154 17 191 -52 l20 -36 -85 -113 c-46
-63 -141 -190 -211 -284 -72 -96 -128 -180 -128 -192 0 -49 27 -54 281 -51
l234 3 0 50 0 50 -177 5 -176 5 180 240 180 240 -4 56 c-10 141 -167 240 -308
194z"/>
<path d="M1820 2011 c-76 -23 -131 -74 -176 -163 -76 -151 -70 -395 15 -540
136 -233 390 -174 474 109 92 311 -92 661 -313 594z m112 -119 c133 -88 161
-398 50 -553 -76 -106 -174 -89 -240 41 -60 121 -62 285 -5 412 47 106 125
146 195 100z"/>
<path d="M2433 2011 c-92 -24 -180 -134 -214 -271 -17 -70 -17 -228 0 -300 32
-132 117 -239 209 -266 222 -65 397 232 328 557 -42 195 -181 316 -323 280z
m127 -127 c111 -94 140 -341 58 -503 -69 -137 -174 -149 -249 -28 -79 129 -79
353 1 477 53 83 130 104 190 54z"/>
<path d="M1427 1902 c-26 -28 -23 -133 3 -157 16 -15 26 -17 48 -9 26 9 27 13
30 83 2 45 -2 78 -9 87 -16 20 -53 17 -72 -4z"/>
<path d="M1427 1432 c-25 -27 -23 -133 1 -155 22 -20 53 -22 70 -5 7 7 12 41
12 83 0 42 -5 76 -12 83 -18 18 -53 15 -71 -6z"/>
</g>
</svg>
