 <svg  version="1.0" xmlns="http://www.w3.org/2000/svg"  width="300.000000pt" height="300.000000pt" viewBox="0 0 300.000000 300.000000"  preserveAspectRatio="xMidYMid meet">  <g transform="translate(0.000000,300.000000) scale(0.100000,-0.100000)" fill="#6d60b2" stroke="none"> <path d="M54 2466 c-18 -14 -19 -34 -22 -687 -2 -592 -1 -675 13 -695 15 -23 20 -24 135 -24 120 0 120 0 120 -24 0 -13 6 -28 13 -33 11 -10 190 -52 1047 -248 206 -47 402 -92 435 -100 265 -64 851 -195 870 -195 12 0 27 6 33 12 5 7 28 94 51 193 47 208 128 560 196 853 45 193 46 204 30 222 -9 10 -31 22 -49 25 -17 4 -85 20 -151 35 -66 15 -135 31 -152 35 l-33 7 0 303 c0 263 -2 306 -16 319 -14 14 -142 16 -1258 16 -1057 0 -1245 -2 -1262 -14z m2436 -696 l0 -610 -1180 0 -1180 0 0 603 c0 332 3 607 7 610 3 4 534 7 1180 7 l1173 0 0 -610z m303 -77 c59 -13 77 -21 77 -34 0 -14 -124 -565 -175 -774 -8 -33 -26 -114 -41 -180 -14 -66 -29 -123 -33 -128 -6 -6 -411 83 -766 168 -33 8 -190 44 -350 80 -159 36 -326 75 -370 85 -44 10 -190 44 -325 75 -135 30 -254 59 -265 64 -13 7 29 10 127 10 88 1 148 -3 150 -9 3 -9 159 -46 1023 -246 160 -36 306 -70 325 -75 60 -15 68 -11 88 34 39 86 117 136 214 137 l57 0 10 38 c6 20 14 57 20 81 5 24 14 48 20 54 6 6 11 28 11 49 0 21 11 86 25 144 14 58 25 117 25 130 0 17 -8 27 -25 34 l-25 10 0 143 c0 79 2 146 5 149 3 3 31 -1 63 -9 31 -7 92 -21 135 -30z m-1297 -665 c62 -30 78 -33 159 -33 81 0 97 3 159 33 l68 32 314 0 c172 0 315 -3 317 -7 2 -5 -1 -28 -7 -53 -11 -45 -11 -45 -64 -52 -96 -14 -167 -59 -213 -136 -13 -20 -23 -38 -24 -40 -2 -2 -334 73 -540 123 -33 8 -190 44 -350 80 -159 36 -299 70 -310 75 -13 5 60 9 201 9 l222 1 68 -32z"/> <path d="M555 2283 c-28 -133 -95 -207 -207 -227 l-38 -7 0 -283 0 -283 41 -6 c86 -11 167 -84 190 -171 6 -23 15 -51 20 -63 l9 -23 745 0 c588 0 746 3 749 13 44 161 96 221 213 245 l38 8 3 281 2 281 -32 7 c-116 23 -182 85 -211 197 l-13 53 -752 3 -752 2 -5 -27z m1478 -59 c14 -83 104 -179 193 -205 l44 -13 -2 -240 -3 -239 -50 -15 c-87 -28 -157 -112 -191 -229 -3 -10 -154 -13 -712 -13 l-708 0 -13 48 c-6 26 -27 68 -46 94 -37 50 -124 108 -162 108 -15 0 -24 8 -28 23 -3 12 -4 120 -3 240 l3 218 59 24 c92 38 162 115 181 203 l7 32 712 0 713 0 6 -36z"/> <path d="M1220 2161 c-56 -18 -128 -62 -172 -108 -216 -223 -114 -603 182 -679 239 -61 473 114 488 365 11 189 -99 356 -271 415 -50 17 -181 21 -227 7z m243 -81 c64 -30 129 -97 163 -168 24 -48 28 -70 29 -142 0 -77 -3 -92 -33 -152 -145 -296 -559 -238 -622 87 -13 67 -4 140 25 209 33 78 135 165 220 187 54 15 166 4 218 -21z"/> </g> </svg> 