<?xml version="1.0" standalone="no"?>
<!DOCTYPE svg PUBLIC "-//W3C//DTD SVG 20010904//EN"
 "http://www.w3.org/TR/2001/REC-SVG-20010904/DTD/svg10.dtd">
<svg version="1.0" xmlns="http://www.w3.org/2000/svg"
 width="900.000000pt" height="900.000000pt" viewBox="0 0 900.000000 900.000000"
 preserveAspectRatio="xMidYMid meet">
<metadata>
Created by potrace 1.10, written by Peter Selinger 2001-2011
</metadata>
<g transform="translate(0.000000,900.000000) scale(0.100000,-0.100000)"
fill="#6d60b2" stroke="none">
<path d="M1760 7693 c-144 -16 -214 -27 -260 -40 -255 -69 -476 -194 -657
-372 -84 -81 -223 -254 -223 -276 0 -3 -11 -21 -24 -38 -26 -35 -111 -228
-126 -286 -5 -20 -19 -70 -32 -111 -21 -69 -22 -94 -23 -325 0 -233 2 -255 23
-325 13 -41 30 -99 38 -128 8 -29 30 -87 49 -128 19 -41 35 -77 35 -80 0 -3
17 -34 37 -67 191 -315 473 -544 809 -656 151 -50 257 -65 454 -65 194 1 296
15 446 63 92 29 234 95 312 145 23 14 44 26 47 26 14 0 176 140 241 207 80 82
85 82 105 -2 6 -28 17 -66 25 -85 7 -19 23 -66 35 -105 12 -38 26 -74 30 -80
4 -5 28 -51 54 -102 58 -112 132 -212 239 -322 84 -86 228 -200 306 -241 25
-14 52 -30 60 -36 28 -21 244 -100 320 -117 41 -9 107 -23 146 -32 94 -20 311
-20 407 0 40 8 108 23 152 32 152 31 368 133 508 240 140 107 202 170 322 328
73 95 170 286 195 383 5 20 17 62 26 92 8 30 20 74 26 98 5 23 14 42 20 42 6
0 50 -40 97 -88 142 -146 255 -228 420 -307 213 -102 372 -138 621 -139 192
-1 293 12 441 59 278 88 507 243 701 475 134 161 245 398 298 640 31 138 23
475 -14 606 -41 147 -58 195 -85 251 -17 34 -31 65 -31 69 0 13 -93 159 -145
229 -219 291 -572 502 -919 551 -133 19 -356 19 -478 0 -459 -70 -878 -389
-1078 -821 -43 -92 -99 -266 -107 -332 -8 -71 -27 -70 -95 7 -71 80 -225 210
-311 262 -56 35 -125 69 -192 97 -44 18 -89 38 -100 43 -19 10 -56 20 -214 55
-107 24 -415 24 -522 0 -145 -32 -194 -45 -234 -61 -22 -9 -51 -22 -65 -27
-161 -67 -336 -185 -469 -316 -52 -51 -98 -93 -101 -93 -4 0 -17 37 -28 83
-72 293 -205 524 -417 725 -268 254 -593 386 -970 395 -55 2 -111 1 -125 0z
m365 -333 c225 -60 388 -153 545 -309 245 -246 357 -558 329 -916 -16 -198
-94 -407 -212 -564 -227 -304 -563 -476 -932 -475 -181 0 -314 31 -490 114
-219 103 -451 331 -535 524 -9 23 -27 61 -38 86 -20 44 -34 92 -67 231 -21 89
-20 299 1 393 25 106 49 183 83 263 30 70 101 191 131 224 8 9 42 48 75 86
159 183 403 315 667 362 93 17 352 6 443 -19z m5185 -4 c119 -32 149 -44 230
-85 115 -59 203 -124 295 -216 181 -181 278 -369 330 -640 40 -210 2 -450
-106 -670 -88 -180 -185 -298 -341 -417 -226 -173 -542 -263 -803 -229 -280
36 -519 153 -707 345 -202 205 -328 510 -328 794 0 163 47 368 117 505 114
227 297 411 523 528 83 43 114 54 230 84 131 33 135 34 310 30 129 -3 171 -7
250 -29z m-2677 -671 c50 -8 117 -24 147 -36 30 -11 64 -23 75 -26 45 -13 185
-92 255 -145 100 -74 213 -194 283 -300 31 -48 57 -89 57 -92 0 -3 13 -34 29
-68 16 -35 36 -85 44 -113 52 -176 52 -175 51 -350 0 -154 -3 -180 -28 -270
-74 -270 -231 -502 -441 -656 -191 -140 -433 -219 -671 -219 -158 0 -347 41
-487 106 -233 108 -430 301 -552 544 -109 215 -144 552 -81 765 8 28 21 73 29
102 34 121 152 311 263 426 164 167 401 298 603 332 106 18 314 18 424 0z"/>
<path d="M830 4676 c-102 -68 -311 -330 -430 -538 -102 -178 -216 -438 -260
-593 -65 -226 -102 -429 -121 -655 -21 -251 -21 -254 -1 -301 24 -54 45 -74
97 -88 28 -8 410 -11 1268 -11 1094 0 1228 -2 1234 -15 3 -9 -2 -62 -11 -119
-25 -161 -39 -389 -26 -435 11 -43 64 -96 108 -108 15 -5 801 -8 1747 -8 1700
0 1720 0 1760 20 22 11 52 38 67 60 26 38 27 46 27 150 0 61 -4 135 -9 165 -5
30 -14 104 -20 164 -9 89 -9 110 2 117 7 5 355 9 773 10 418 1 989 4 1268 8
l508 6 29 35 c63 78 65 157 14 550 -8 63 -17 133 -19 155 -6 47 -22 121 -40
190 -8 28 -25 93 -39 145 -48 185 -120 367 -218 551 -159 297 -401 569 -507
569 -27 0 -86 -30 -161 -81 -32 -21 -60 -39 -63 -39 -3 0 -28 -13 -54 -28 -65
-38 -205 -97 -278 -117 -33 -9 -69 -20 -80 -24 -11 -5 -54 -17 -95 -27 -62
-16 -112 -19 -290 -19 -188 1 -224 3 -292 22 -42 12 -86 27 -97 32 -11 6 -27
11 -37 11 -9 0 -62 23 -118 50 -125 62 -114 56 -285 175 -73 51 -109 56 -169
26 -52 -27 -189 -172 -287 -306 -38 -52 -125 -184 -125 -191 0 -2 -12 -23 -27
-47 -15 -23 -36 -58 -46 -77 -26 -49 -45 -61 -82 -54 -39 7 -79 -9 -170 -71
-74 -49 -259 -143 -335 -170 -219 -77 -448 -113 -617 -96 -171 18 -295 49
-411 102 -34 16 -64 29 -67 29 -11 0 -167 99 -232 148 -59 44 -82 55 -127 61
-31 4 -58 10 -60 12 -1 2 -26 47 -53 99 -93 176 -200 324 -347 478 -52 55
-129 102 -166 102 -26 0 -88 -31 -162 -81 -31 -22 -59 -39 -62 -39 -3 0 -27
-13 -53 -28 -61 -36 -218 -100 -303 -124 -36 -10 -99 -28 -140 -40 -66 -19
-100 -22 -295 -22 -226 -1 -281 6 -383 50 -18 8 -40 14 -49 14 -34 0 -244 113
-352 189 -129 92 -165 101 -231 57z m2055 -380 c68 -73 178 -243 243 -377 34
-69 62 -129 62 -133 0 -4 -19 -35 -42 -68 -102 -146 -119 -173 -166 -251 -27
-45 -70 -127 -97 -182 -26 -55 -53 -111 -60 -125 -17 -35 -102 -270 -109 -300
-3 -14 -11 -33 -18 -43 -12 -16 -76 -17 -1187 -17 -645 0 -1177 3 -1182 6 -13
8 -11 73 6 194 14 102 22 143 64 320 35 151 127 396 201 535 87 164 114 212
140 245 14 19 43 60 63 90 39 59 111 140 124 140 4 0 33 -16 63 -34 126 -79
334 -171 445 -197 303 -71 646 -59 930 35 44 14 83 26 88 26 4 0 32 11 60 24
29 13 77 34 107 47 30 13 88 42 130 65 41 23 79 42 84 43 5 1 28 -19 51 -43z
m5179 -8 c72 -81 169 -233 236 -366 33 -66 60 -127 60 -134 0 -7 6 -22 14 -33
7 -11 32 -78 55 -149 38 -118 56 -187 81 -317 4 -25 13 -64 19 -85 15 -57 43
-312 39 -359 l-3 -40 -1173 -5 c-645 -3 -1182 -2 -1192 2 -11 4 -22 20 -25 35
-12 53 -37 138 -50 168 -7 17 -21 55 -30 85 -40 125 -110 276 -201 435 -38 67
-131 202 -144 210 -30 18 13 123 126 306 69 111 176 257 204 276 19 14 26 12
91 -27 386 -229 737 -287 1201 -199 54 10 106 23 115 28 10 5 45 16 78 26 75
21 266 102 365 154 41 22 78 41 81 41 4 0 28 -24 53 -52z m-2604 -681 c131
-144 291 -438 361 -666 12 -36 27 -82 34 -101 13 -33 22 -73 59 -245 42 -198
66 -446 46 -470 -19 -23 -3041 -23 -3060 0 -9 11 -9 36 -1 112 18 156 38 272
61 358 12 44 26 96 31 115 14 57 96 281 123 337 14 29 26 57 26 63 0 5 14 32
30 58 17 27 30 52 30 56 0 33 255 401 287 413 16 6 42 -6 138 -64 186 -112
412 -183 657 -204 113 -11 155 -10 283 4 148 17 343 59 440 95 28 11 75 29
105 40 30 12 107 48 170 81 63 32 121 59 128 60 7 1 31 -18 52 -42z"/>
</g>
</svg>
